<mxfile host="Electron" agent="Mozilla/5.0 (Windows NT 10.0; Win64; x64) AppleWebKit/537.36 (KHTML, like Gecko) draw.io/27.0.9 Chrome/134.0.6998.205 Electron/35.4.0 Safari/537.36" version="27.0.9">
  <diagram name="Page-1" id="ykJ9WlF84OGaFjw_ZXO-">
    <mxGraphModel dx="1426" dy="859" grid="1" gridSize="10" guides="1" tooltips="1" connect="1" arrows="1" fold="1" page="1" pageScale="1" pageWidth="850" pageHeight="1100" math="0" shadow="0">
      <root>
        <mxCell id="0" />
        <mxCell id="1" parent="0" />
        <mxCell id="dmuMrezsaLSfr1iSNlbz-1" value="" style="endArrow=classic;html=1;rounded=0;exitX=1;exitY=0.5;exitDx=0;exitDy=0;entryX=0;entryY=0.5;entryDx=0;entryDy=0;" parent="1" source="dmuMrezsaLSfr1iSNlbz-2" target="dmuMrezsaLSfr1iSNlbz-12" edge="1">
          <mxGeometry width="50" height="50" relative="1" as="geometry">
            <mxPoint x="435" y="319.5" as="sourcePoint" />
            <mxPoint x="535" y="320" as="targetPoint" />
            <Array as="points">
              <mxPoint x="495" y="320" />
            </Array>
          </mxGeometry>
        </mxCell>
        <mxCell id="dmuMrezsaLSfr1iSNlbz-2" value="" style="ellipse;whiteSpace=wrap;html=1;aspect=fixed;fillColor=#dae8fc;gradientColor=#7ea6e0;strokeColor=#6c8ebf;" parent="1" vertex="1">
          <mxGeometry x="405" y="310" width="20" height="20" as="geometry" />
        </mxCell>
        <mxCell id="dmuMrezsaLSfr1iSNlbz-3" value="" style="ellipse;whiteSpace=wrap;html=1;aspect=fixed;fillColor=#f8cecc;gradientColor=#ea6b66;strokeColor=#b85450;" parent="1" vertex="1">
          <mxGeometry x="735" y="310" width="20" height="20" as="geometry" />
        </mxCell>
        <mxCell id="dmuMrezsaLSfr1iSNlbz-4" value="" style="ellipse;whiteSpace=wrap;html=1;aspect=fixed;fillColor=#fff2cc;gradientColor=#ffd966;strokeColor=#d6b656;" parent="1" vertex="1">
          <mxGeometry x="920" y="310" width="20" height="20" as="geometry" />
        </mxCell>
        <mxCell id="dmuMrezsaLSfr1iSNlbz-5" value="" style="endArrow=classic;html=1;rounded=0;exitX=1;exitY=0.5;exitDx=0;exitDy=0;entryX=0;entryY=0.5;entryDx=0;entryDy=0;" parent="1" source="dmuMrezsaLSfr1iSNlbz-3" target="dmuMrezsaLSfr1iSNlbz-4" edge="1">
          <mxGeometry width="50" height="50" relative="1" as="geometry">
            <mxPoint x="550" y="330" as="sourcePoint" />
            <mxPoint x="650" y="330" as="targetPoint" />
          </mxGeometry>
        </mxCell>
        <mxCell id="dmuMrezsaLSfr1iSNlbz-6" value="" style="endArrow=classic;html=1;rounded=0;exitX=1;exitY=0.5;exitDx=0;exitDy=0;entryX=0;entryY=0.5;entryDx=0;entryDy=0;" parent="1" source="dmuMrezsaLSfr1iSNlbz-4" target="dmuMrezsaLSfr1iSNlbz-7" edge="1">
          <mxGeometry width="50" height="50" relative="1" as="geometry">
            <mxPoint x="710" y="330" as="sourcePoint" />
            <mxPoint x="990" y="320" as="targetPoint" />
          </mxGeometry>
        </mxCell>
        <mxCell id="dmuMrezsaLSfr1iSNlbz-7" value="" style="ellipse;whiteSpace=wrap;html=1;aspect=fixed;fillColor=#d5e8d4;gradientColor=#97d077;strokeColor=#82b366;" parent="1" vertex="1">
          <mxGeometry x="1120" y="310" width="20" height="20" as="geometry" />
        </mxCell>
        <mxCell id="dmuMrezsaLSfr1iSNlbz-8" value="VQA: Visual Question Answering (2015)" style="text;html=1;align=center;verticalAlign=middle;whiteSpace=wrap;rounded=0;" parent="1" vertex="1">
          <mxGeometry x="350" y="340" width="130" height="30" as="geometry" />
        </mxCell>
        <mxCell id="dmuMrezsaLSfr1iSNlbz-9" value="MIMIC-CXR (2019)" style="text;html=1;align=center;verticalAlign=middle;whiteSpace=wrap;rounded=0;" parent="1" vertex="1">
          <mxGeometry x="680" y="340" width="130" height="30" as="geometry" />
        </mxCell>
        <mxCell id="dmuMrezsaLSfr1iSNlbz-10" value="EKAID (2023)" style="text;html=1;align=center;verticalAlign=middle;whiteSpace=wrap;rounded=0;" parent="1" vertex="1">
          <mxGeometry x="865" y="340" width="130" height="30" as="geometry" />
        </mxCell>
        <mxCell id="dmuMrezsaLSfr1iSNlbz-11" value="2024&lt;div&gt;ReAl&lt;br&gt;&lt;div&gt;PLURAL&lt;/div&gt;&lt;/div&gt;&lt;div&gt;RegioMix&lt;/div&gt;&lt;div&gt;&lt;br&gt;&lt;/div&gt;&lt;div&gt;&lt;br&gt;&lt;/div&gt;" style="text;html=1;align=center;verticalAlign=middle;whiteSpace=wrap;rounded=0;" parent="1" vertex="1">
          <mxGeometry x="1065" y="370" width="130" height="30" as="geometry" />
        </mxCell>
        <mxCell id="dmuMrezsaLSfr1iSNlbz-12" value="" style="ellipse;whiteSpace=wrap;html=1;aspect=fixed;fillColor=#e6d0de;gradientColor=#d5739d;strokeColor=#996185;" parent="1" vertex="1">
          <mxGeometry x="565" y="310" width="20" height="20" as="geometry" />
        </mxCell>
        <mxCell id="dmuMrezsaLSfr1iSNlbz-13" value="VQA-RAD (2018)" style="text;html=1;align=center;verticalAlign=middle;whiteSpace=wrap;rounded=0;" parent="1" vertex="1">
          <mxGeometry x="515" y="340" width="130" height="30" as="geometry" />
        </mxCell>
        <mxCell id="dmuMrezsaLSfr1iSNlbz-14" value="" style="endArrow=classic;html=1;rounded=0;exitX=1;exitY=0.5;exitDx=0;exitDy=0;entryX=0;entryY=0.5;entryDx=0;entryDy=0;" parent="1" source="dmuMrezsaLSfr1iSNlbz-12" target="dmuMrezsaLSfr1iSNlbz-3" edge="1">
          <mxGeometry width="50" height="50" relative="1" as="geometry">
            <mxPoint x="595" y="300" as="sourcePoint" />
            <mxPoint x="735" y="300" as="targetPoint" />
            <Array as="points" />
          </mxGeometry>
        </mxCell>
      </root>
    </mxGraphModel>
  </diagram>
</mxfile>
